# xmcd CD database file
#
# Track frame offsets:
#	150
#	51642
#	107463
#	147676
#	207713
#	280741
#
# Disc length: 4278 seconds
#
# Revision: 0
# Processed by: cddbd v1.5.1PL0 Copyright (c) Steve Scherf et al.
# Submitted via: CDex 1.51
#
DISCID=6410b406
DTITLE=Soulive - Umbria Jazz festival, italy 7.20.2001
DYEAR=2001
DGENRE=Jazz
TTITLE0=Doing something
TTITLE1=Rudy's way
TTITLE2=So live
TTITLE3=Cannonball
TTITLE4=Jesus childeren
TTITLE5=Tabasco
EXTD=YEAR: 2001
EXTT0=
EXTT1=
EXTT2=
EXTT3=
EXTT4=
EXTT5=
PLAYORDER=
